    <svg style="height: 4rem;" version="1.0" xmlns="http://www.w3.org/2000/svg"
 width="300.000000pt" height="249.000000pt" viewBox="0 0 300.000000 249.000000"
 preserveAspectRatio="xMidYMid meet">
<g transform="translate(0.000000,249.000000) scale(0.100000,-0.100000)"
fill="#ccc" stroke="none">
<path d="M944 2261 c-72 -26 -123 -63 -156 -112 -47 -70 -59 -138 -33 -188 28
-56 118 -57 152 -3 24 40 65 82 78 82 22 0 45 -36 45 -69 0 -45 -17 -72 -109
-181 -135 -160 -174 -258 -147 -373 7 -31 25 -75 40 -98 30 -45 103 -96 151
-105 l31 -6 -22 -44 c-29 -58 -39 -120 -27 -176 6 -26 6 -54 1 -68 l-9 -24
-18 30 c-30 48 -111 121 -111 100 0 -3 9 -20 19 -38 11 -18 23 -53 27 -78 l7
-45 -32 34 c-38 42 -80 71 -104 71 -15 0 -15 -4 6 -38 22 -35 47 -95 47 -113
0 -5 -25 17 -55 48 -29 31 -53 61 -52 67 1 6 -7 11 -18 11 -11 0 -25 6 -31 14
-14 17 -44 8 -44 -14 0 -9 -3 -14 -7 -12 -14 8 -104 -8 -103 -18 0 -10 4 -11
35 -14 8 0 15 -8 15 -16 0 -7 6 -18 13 -22 6 -4 12 -14 12 -20 0 -7 4 -13 10
-12 5 0 13 -9 17 -21 7 -19 11 -20 24 -9 14 11 19 9 35 -11 30 -40 25 -51 -16
-34 -45 18 -90 18 -148 -2 -52 -18 -62 -34 -19 -34 75 0 183 -71 212 -139 12
-29 12 -29 46 -15 18 8 43 14 55 14 18 0 20 4 14 27 -9 34 -9 43 0 68 5 16 5
17 -4 5 -16 -23 -24 10 -11 45 6 15 8 31 4 34 -4 3 -9 0 -11 -6 -9 -26 -24
-12 -21 22 1 19 -1 37 -5 41 -4 4 -7 2 -7 -5 0 -24 -24 -39 -48 -30 -19 7 -21
11 -10 23 11 11 15 11 26 -3 12 -14 13 -14 7 4 -14 42 -14 55 1 55 9 0 12 -5
8 -12 -5 -7 -3 -8 6 -3 8 5 25 -8 50 -36 l38 -44 -4 45 c-3 33 -2 40 5 25 8
-17 10 -18 10 -2 1 9 -3 25 -8 35 -5 9 -12 25 -15 35 -4 11 -11 15 -17 11 -8
-5 -9 -3 -4 6 6 10 19 1 51 -32 45 -48 54 -50 54 -12 0 13 5 26 10 29 7 4 7
13 0 26 -19 35 7 20 29 -17 14 -23 19 -44 15 -58 -11 -38 -66 -111 -100 -134
-42 -27 -44 -58 -9 -117 25 -43 69 -82 117 -102 42 -18 42 -2 1 35 l-38 34 35
-20 c19 -11 41 -17 48 -15 24 9 12 21 -28 28 -22 4 -38 11 -34 16 3 5 13 5 24
-1 24 -13 40 -13 40 0 0 6 -6 10 -12 10 -7 0 -28 9 -47 21 l-35 21 55 18 c38
13 66 31 95 64 l41 45 22 -23 c11 -12 21 -29 21 -37 0 -8 -23 -48 -50 -89 -54
-81 -66 -134 -32 -144 9 -2 57 -5 105 -5 48 0 101 -3 118 -6 17 -4 29 -2 29 3
0 18 -65 33 -108 26 -23 -3 -49 -4 -58 0 -28 11 53 46 104 46 29 0 41 4 36 11
-4 7 -23 9 -52 5 l-45 -6 81 84 c44 46 88 98 97 116 15 29 18 31 38 17 37 -23
123 -48 177 -50 27 -1 50 -7 50 -12 0 -20 157 -251 186 -274 23 -18 37 -22 68
-18 22 3 48 1 59 -5 24 -12 34 -3 18 16 -8 9 -26 14 -47 12 -19 -1 -34 1 -34
6 0 4 7 8 16 8 8 0 12 4 9 10 -3 5 3 10 14 10 12 0 21 -4 21 -8 0 -5 11 -14
25 -20 29 -13 32 -6 10 25 -9 13 -28 23 -48 25 -29 3 -36 10 -69 77 -47 92
-50 138 -10 152 15 5 30 8 34 7 14 -6 75 98 65 109 -3 2 -14 -12 -25 -31 -18
-31 -74 -76 -93 -76 -4 0 4 43 18 96 13 53 22 102 19 109 -6 15 10 40 26 41
28 2 68 17 68 25 0 13 -12 11 -33 -5 -18 -14 -57 -11 -57 4 0 4 16 18 36 30
31 17 42 19 67 10 16 -5 47 -10 69 -10 l39 0 -20 -27 c-10 -16 -27 -53 -37
-83 -9 -30 -19 -49 -21 -42 -6 17 -23 15 -23 -3 0 -9 -7 -30 -16 -46 -8 -17
-13 -33 -10 -36 2 -3 12 9 21 26 9 18 20 29 26 26 5 -4 18 13 29 37 l20 43 0
-70 c1 -127 11 -151 127 -293 l26 -33 -20 -21 -21 -20 -58 40 c-78 52 -161
128 -169 153 -4 10 -11 17 -16 14 -5 -4 -9 0 -9 8 0 8 -7 17 -15 21 -8 3 -15
1 -15 -4 0 -11 39 -77 42 -71 2 2 20 -12 41 -32 l39 -35 -63 -1 c-34 0 -64 -3
-67 -6 -3 -3 31 -5 75 -5 60 0 84 -4 93 -15 7 -8 39 -31 71 -51 55 -33 61 -34
97 -23 29 8 44 8 60 0 27 -14 32 -14 32 3 0 19 -18 24 -65 20 -32 -2 -36 -1
-21 8 10 5 36 8 58 5 27 -4 38 -2 35 6 -2 7 -23 14 -48 15 -40 3 -49 9 -99 69
-69 81 -81 103 -86 166 -5 47 -3 54 21 70 15 11 34 20 42 21 9 2 20 11 24 22
4 10 8 13 8 6 1 -7 -3 -21 -8 -31 -14 -25 -21 -100 -11 -106 5 -3 11 4 15 14
3 11 20 32 36 46 31 26 56 34 43 14 -3 -6 5 -3 20 6 14 10 26 20 26 24 0 3 18
7 39 9 22 1 52 9 68 17 15 8 37 15 48 14 16 -1 15 -2 -5 -8 -34 -11 -89 -39
-123 -65 -26 -19 -67 -74 -67 -90 0 -4 19 -4 43 -1 92 14 108 14 97 0 -6 -7
-24 -18 -40 -25 -31 -13 -43 -37 -13 -26 28 11 119 -13 139 -37 13 -15 14 -18
3 -9 -9 7 -25 10 -35 6 -16 -5 -17 -4 -4 6 13 10 11 11 -7 7 -13 -3 -25 -2
-28 3 -2 4 -17 5 -32 2 l-28 -6 30 -7 c25 -6 26 -7 6 -8 -13 0 -41 -11 -64
-23 -29 -17 -41 -20 -44 -10 -3 6 -10 9 -16 5 -6 -3 -22 -7 -36 -9 -43 -4 -39
-6 18 -13 43 -5 63 -3 90 11 39 20 108 23 160 8 43 -12 47 -8 25 25 -20 31
-55 51 -107 60 -51 10 -40 17 35 24 l62 6 -29 19 c-33 22 -114 27 -175 12
l-35 -8 25 27 c49 53 121 94 195 110 l30 7 -25 13 c-29 16 -90 20 -90 5 0 -5
-7 -7 -15 -4 -9 4 -15 0 -15 -10 0 -9 -4 -16 -10 -16 -5 0 -10 7 -10 16 0 17
25 46 33 38 3 -3 15 -1 26 6 24 13 28 40 6 40 -9 0 -15 7 -13 17 2 10 -4 19
-14 21 -10 2 -18 -2 -18 -8 0 -6 5 -8 10 -5 6 3 10 1 10 -5 0 -6 -7 -13 -16
-17 -8 -3 -13 -11 -10 -19 7 -17 -15 -34 -39 -29 -11 2 -28 4 -37 4 -10 1 -18
6 -18 12 0 7 12 8 33 4 29 -6 31 -5 17 9 -20 20 -62 10 -58 -14 2 -9 -11 -33
-27 -52 -17 -19 -38 -50 -49 -69 -10 -19 -21 -29 -23 -22 -6 16 23 72 55 105
14 15 23 31 19 34 -11 11 -115 -45 -141 -77 -14 -16 -27 -29 -30 -29 -3 0 -6
31 -6 69 0 76 23 121 63 121 12 0 37 9 56 21 26 15 36 17 42 8 5 -9 16 -4 37
18 18 17 35 26 40 21 11 -11 53 34 55 61 1 11 7 21 14 21 16 0 17 -7 -7 70
-17 56 -18 66 -5 73 71 39 110 161 66 202 -19 16 -23 16 -85 -6 l-64 -23 -59
29 c-50 26 -70 30 -148 32 -49 1 -96 2 -104 2 -8 1 -33 22 -57 47 -35 39 -46
46 -68 40 -55 -14 -76 -137 -36 -204 11 -18 20 -35 20 -37 0 -3 -23 -30 -50
-60 -54 -60 -60 -77 -32 -97 24 -19 28 -68 5 -68 -33 0 -117 46 -191 104 -40
32 -78 56 -85 53 -6 -2 -17 5 -24 17 -8 14 -12 16 -12 6 -1 -21 14 -42 26 -38
6 2 45 -23 88 -55 104 -78 149 -99 207 -100 29 -1 49 -6 52 -14 3 -7 13 -13
22 -13 8 0 35 -20 59 -45 43 -44 44 -45 20 -51 -35 -9 -50 -32 -50 -78 -1 -23
-14 -94 -29 -158 -33 -136 -31 -155 23 -263 38 -76 38 -84 -1 -98 -25 -9 -39
8 -128 143 -86 131 -85 127 -65 210 l6 25 -15 -25 c-8 -14 -15 -35 -16 -47 0
-19 -6 -23 -33 -23 -44 0 -145 27 -182 49 -26 15 -29 22 -27 53 2 20 -2 46 -8
57 -13 25 -7 27 16 4 18 -19 18 -22 -1 45 -4 13 -2 22 4 22 17 0 13 20 -13 77
-23 49 -84 119 -94 108 -3 -3 8 -20 25 -38 27 -27 73 -105 73 -122 0 -3 -7 -5
-15 -5 -17 0 -20 -16 -5 -25 16 -10 12 -35 -5 -35 -12 0 -13 -4 -5 -19 16 -30
11 -102 -9 -141 -10 -19 -59 -79 -107 -132 -88 -96 -89 -97 -136 -97 -27 -1
-48 3 -48 7 0 4 22 42 50 83 27 40 50 80 50 88 0 8 -20 36 -46 63 -26 27 -42
53 -38 60 4 6 3 8 -3 5 -17 -10 -71 82 -84 143 -23 107 15 224 92 279 34 25
37 31 24 39 -13 7 -7 12 30 22 33 9 45 17 40 28 -4 12 3 13 41 7 40 -6 46 -4
41 9 -8 21 15 21 53 1 21 -11 30 -12 30 -4 0 7 8 5 20 -6 28 -25 25 -3 -3 23
-26 25 -46 30 -27 7 7 -8 10 -15 7 -15 -2 0 -21 7 -40 15 -20 8 -41 15 -47 15
-5 0 -10 -7 -10 -15 0 -11 -11 -15 -39 -15 -49 0 -78 -10 -61 -20 8 -5 -1 -12
-23 -19 -31 -10 -41 -9 -75 8 -63 32 -92 74 -92 132 0 64 21 103 109 207 144
171 190 252 198 358 7 74 -8 123 -50 170 -63 73 -156 98 -243 65z m144 -16
c50 -15 70 -35 36 -35 -27 0 -80 -65 -95 -114 -15 -51 -34 -59 -49 -20 -14 35
-13 128 2 159 13 29 33 31 106 10z m-132 -27 c-14 -34 -15 -96 -1 -118 6 -9 4
-11 -5 -5 -9 6 -8 0 3 -15 15 -21 14 -24 -13 -47 -35 -29 -66 -24 -110 17 -46
43 -49 75 -9 117 28 29 115 80 141 82 4 1 1 -14 -6 -31z m223 -37 c27 -38 26
-51 -3 -51 -14 0 -28 -5 -31 -10 -4 -6 -11 -8 -16 -5 -5 4 -9 1 -9 -5 0 -6 -4
-9 -9 -6 -5 3 -21 -11 -37 -32 -15 -20 -29 -39 -30 -41 -7 -9 -22 12 -18 24 4
8 10 12 15 9 5 -3 9 2 9 11 0 9 4 14 9 11 5 -4 7 2 4 12 -4 17 69 112 87 112
5 0 18 -13 29 -29z m38 -143 c-4 -62 -12 -96 -31 -135 -28 -55 -46 -74 -46
-49 0 21 -39 45 -77 48 -29 2 -30 4 -20 26 10 21 16 23 47 18 24 -4 30 -3 20
4 -9 6 -10 10 -3 10 6 0 15 -5 18 -10 4 -6 10 -8 15 -5 5 3 11 1 15 -5 8 -13
35 -13 35 0 0 5 -14 17 -31 26 -30 15 -54 15 -91 -1 -15 -6 -18 -2 -18 22 0
36 48 88 105 114 67 31 68 29 62 -63z m-439 28 c-2 -3 12 -16 29 -29 18 -13
31 -26 28 -29 -3 -2 1 -5 8 -6 64 -5 74 -19 35 -46 -52 -37 -118 -5 -118 57 0
39 12 86 18 69 2 -6 2 -14 0 -16z m337 -212 c15 -17 22 -32 17 -40 -14 -26
-97 -123 -105 -124 -4 0 -12 12 -17 26 -6 14 -14 23 -19 20 -5 -3 -11 0 -14 8
-3 8 -16 12 -31 11 -14 -2 -26 0 -26 3 0 4 23 33 51 65 43 49 56 57 85 57 25
0 42 -8 59 -26z m-145 -134 c40 -21 43 -47 13 -89 l-27 -38 -29 28 c-18 19
-39 29 -58 29 -36 0 -37 -11 -4 -27 19 -8 24 -8 19 0 -3 7 1 4 9 -5 8 -10 19
-18 25 -18 18 0 24 -18 12 -41 -10 -18 -13 -19 -28 -6 -20 18 -62 25 -80 13
-25 -15 -26 4 -3 51 38 78 70 113 103 113 16 0 38 -5 48 -10z m895 -126 c9
-14 30 -33 47 -43 27 -17 28 -20 10 -25 -11 -4 -27 -15 -37 -26 -26 -28 -40
-25 -59 14 -16 34 -22 97 -10 109 10 10 32 -3 49 -29z m-43 -106 c16 -23 17
-30 6 -48 -18 -28 -24 -26 -43 22 -12 31 -15 55 -9 88 l7 45 10 -40 c5 -22 18
-52 29 -67z m-916 41 c6 -5 9 -22 6 -39 -3 -24 -8 -29 -22 -25 -24 8 -93 -21
-88 -37 2 -6 10 -14 18 -16 7 -3 10 0 6 6 -4 7 10 14 36 19 39 8 44 7 49 -12
7 -25 2 -36 -15 -29 -7 3 -27 -10 -44 -27 l-32 -32 -15 35 c-32 79 -31 162 3
171 22 7 84 -2 98 -14z m1245 -10 c37 -9 118 -72 108 -83 -4 -4 -14 0 -22 9
-9 8 -22 15 -31 15 -8 0 -18 5 -21 10 -4 7 -13 7 -26 0 -11 -6 -24 -8 -29 -5
-5 3 -11 1 -15 -5 -11 -17 -44 -11 -67 12 -31 31 -89 40 -127 18 -10 -6 -1 -7
27 -3 38 5 48 2 83 -27 33 -26 46 -31 72 -26 81 17 96 17 124 2 17 -8 33 -13
35 -10 8 7 25 -41 48 -133 11 -45 23 -89 26 -97 4 -12 2 -15 -9 -11 -11 5 -13
0 -9 -20 3 -16 -2 -33 -13 -45 -17 -19 -19 -19 -31 -2 -12 16 -13 16 -20 -3
-11 -32 -37 -57 -44 -44 -5 7 -20 4 -49 -10 -96 -49 -213 -32 -286 42 -22 23
-49 42 -60 42 -14 0 -21 8 -23 28 -3 25 -22 40 -22 17 0 -5 -5 -10 -11 -10 -7
0 -10 14 -7 35 3 29 1 35 -14 35 -30 0 -21 27 30 84 26 31 61 74 77 97 69 97
165 125 306 88z m242 -15 c10 -11 -20 -60 -54 -89 l-33 -27 -14 29 c-8 15 -21
36 -30 46 -14 16 -13 17 9 17 13 1 38 7 54 15 33 15 58 18 68 9z m7 -79 c-16
-49 -70 -111 -81 -93 -16 24 -9 45 16 56 14 7 35 28 47 47 25 44 34 39 18 -10z
m-1437 -76 c17 -18 45 -38 62 -45 16 -7 26 -13 20 -14 -5 0 -3 -4 5 -10 12 -7
9 -13 -15 -32 -16 -13 -31 -22 -32 -22 -2 1 -18 4 -35 8 -30 6 -31 7 -13 26
10 11 15 20 11 20 -4 0 0 7 9 16 18 19 15 27 -8 18 -9 -3 -22 -19 -29 -35 -7
-16 -16 -29 -21 -29 -4 0 -24 15 -45 34 l-37 34 20 22 c18 21 48 38 68 39 5 1
23 -13 40 -30z m1427 -400 c0 -5 -7 -9 -15 -9 -15 0 -20 12 -9 23 8 8 24 -1
24 -14z m-1742 -12 c17 6 15 -12 -3 -27 -12 -10 -15 -9 -15 5 0 11 -5 15 -15
12 -17 -7 -29 8 -20 24 5 7 12 6 23 -4 10 -8 23 -12 30 -10z m-68 -17 c8 -5
11 -12 8 -16 -10 -9 -38 3 -38 16 0 12 10 13 30 0z m450 -112 c17 -20 30 -41
30 -46 0 -13 -63 -68 -100 -87 -16 -8 -50 -18 -74 -21 -39 -6 -45 -4 -56 17
-12 21 -9 25 24 52 37 30 73 89 96 161 l13 39 19 -39 c10 -21 32 -56 48 -76z
m1258 100 c-5 -15 -98 -81 -98 -70 0 16 58 64 69 57 7 -3 11 -3 10 2 -3 16 1
23 12 23 6 0 9 -5 7 -12z m-1661 -14 c8 -21 -13 -42 -28 -27 -13 13 -5 43 11
43 6 0 13 -7 17 -16z m63 -5 c0 -5 -9 -9 -20 -9 -24 0 -26 -15 -3 -24 12 -5
13 -10 5 -18 -8 -8 -15 -8 -26 1 -12 10 -14 9 -9 -8 3 -12 1 -21 -6 -21 -14 0
-15 37 -1 45 6 3 10 15 10 25 0 10 6 20 13 23 16 5 37 -3 37 -14z m1626 4 c-3
-21 -26 -30 -26 -10 0 7 3 17 7 20 12 12 21 7 19 -10z m-1748 -5 c17 -17 15
-45 -3 -52 -18 -6 -20 10 -3 20 7 5 4 10 -11 16 -12 4 -19 12 -16 18 8 13 18
13 33 -2z m28 -75 c-11 -11 -17 4 -9 23 7 18 8 18 11 1 2 -10 1 -21 -2 -24z
m104 -53 c4 0 15 -12 25 -26 l17 -26 -31 7 c-20 4 -31 3 -31 -4 0 -6 13 -11
28 -11 21 0 32 -7 40 -25 13 -27 7 -30 -31 -16 -14 6 -28 7 -32 3 -4 -4 10
-12 32 -18 28 -8 39 -17 41 -33 3 -17 -1 -22 -15 -21 -10 1 -20 1 -23 0 -20
-7 -40 -7 -40 1 0 26 -72 92 -138 127 l-54 29 52 2 c28 0 67 -6 87 -14 46 -19
46 -19 40 11 -3 19 -1 24 10 20 8 -3 18 -6 23 -6z m147 -122 c44 -19 67 -46
53 -63 -6 -8 -8 -20 -4 -27 6 -10 3 -9 -9 1 -19 15 -23 36 -5 25 7 -4 8 -3 4
5 -6 9 -11 9 -21 1 -11 -9 -13 -8 -10 9 2 13 -1 18 -9 15 -11 -4 -47 60 -45
82 0 5 4 -1 9 -14 5 -12 22 -28 37 -34z m233 -149 c0 -5 -9 -9 -20 -9 -11 0
-20 6 -20 14 0 9 7 12 20 9 11 -3 20 -9 20 -14z"/>
<path d="M880 2170 c0 -38 18 -87 43 -118 8 -10 12 -10 18 -1 4 7 1 19 -7 26
-8 8 -12 19 -9 24 4 5 1 9 -5 9 -6 0 -9 4 -5 9 3 5 1 12 -5 16 -5 3 -10 22
-10 41 0 19 -4 34 -10 34 -5 0 -10 -18 -10 -40z"/>
<path d="M885 2050 c-3 -5 -1 -10 4 -10 6 0 11 5 11 10 0 6 -2 10 -4 10 -3 0
-8 -4 -11 -10z"/>
<path d="M1090 2021 c0 -6 5 -13 10 -16 6 -3 10 1 10 9 0 9 -4 16 -10 16 -5 0
-10 -4 -10 -9z"/>
<path d="M1047 1842 c-19 -20 -23 -37 -7 -27 10 6 33 45 27 45 -2 0 -11 -8
-20 -18z"/>
<path d="M960 1791 c0 -6 5 -13 12 -17 7 -5 8 -3 3 5 -5 9 -1 9 16 -1 32 -18
39 -29 34 -53 -3 -11 -2 -14 1 -7 3 6 12 12 20 12 21 0 17 24 -9 48 -23 22
-77 31 -77 13z"/>
<path d="M910 1695 c-20 -24 -6 -28 15 -5 10 11 13 20 8 20 -6 0 -16 -7 -23
-15z"/>
<path d="M1840 1574 c0 -6 7 -19 15 -30 8 -10 14 -14 14 -9 0 6 -6 19 -14 29
-8 11 -15 15 -15 10z"/>
<path d="M1847 1393 c-37 -42 -28 -127 16 -158 32 -23 43 -18 19 8 -29 30 -28
62 3 92 31 32 50 31 81 -1 20 -19 24 -31 20 -50 -5 -17 -3 -23 4 -19 5 3 10
24 10 47 0 32 -6 46 -31 69 -37 34 -96 40 -122 12z m91 -13 c14 -7 11 -9 -14
-10 -32 0 -68 -30 -78 -65 -3 -11 -3 -3 -1 18 2 22 8 44 14 51 13 15 58 19 79
6z"/>
<path d="M2143 1350 c-83 -34 -58 -174 32 -174 87 0 138 135 65 174 -22 12
-67 12 -97 0z m91 -32 c9 -12 16 -34 15 -48 -1 -24 -1 -24 -15 7 -7 17 -24 39
-36 47 l-22 16 21 0 c12 0 29 -10 37 -22z m-30 -20 c34 -48 7 -109 -47 -107
l-32 1 32 9 c57 16 57 90 0 97 -17 2 -30 -4 -41 -20 -9 -13 -16 -17 -16 -9 0
47 77 68 104 29z m-19 -38 c-5 -8 -11 -8 -17 -2 -6 6 -7 16 -3 22 5 8 11 8 17
2 6 -6 7 -16 3 -22z m-30 -22 c6 -4 2 -8 -7 -8 -10 0 -18 7 -18 17 0 9 3 12 8
7 4 -5 12 -12 17 -16z"/>
<path d="M1896 1324 c-9 -8 -16 -26 -16 -39 0 -22 23 -55 38 -55 24 0 52 34
52 62 0 29 -1 30 -13 13 -10 -13 -16 -15 -21 -6 -4 6 -2 18 4 26 10 12 9 15
-8 15 -11 0 -28 -7 -36 -16z m33 -47 c8 -10 7 -14 -2 -14 -8 0 -14 6 -14 14 0
7 1 13 2 13 2 0 8 -6 14 -13z"/>
<path d="M1776 1295 c-9 -26 -7 -32 5 -12 6 10 9 21 6 23 -2 3 -7 -2 -11 -11z"/>
<path d="M2010 1255 c-6 -8 -31 -26 -55 -40 -24 -14 -45 -33 -47 -42 -16 -71
112 -129 192 -88 45 23 49 59 12 98 -17 18 -35 44 -41 60 -12 30 -41 36 -61
12z m67 -52 c-2 -1 -17 1 -33 5 -55 15 -85 -8 -49 -38 17 -14 20 -36 6 -44
-14 -9 -41 5 -41 21 0 8 -5 11 -10 8 -20 -12 10 -46 38 -44 15 1 35 -1 44 -5
26 -12 52 -3 56 19 4 19 3 19 -10 2 -8 -11 -20 -16 -31 -11 -18 7 -24 34 -7
34 6 0 19 9 29 19 19 19 20 19 35 -3 12 -19 12 -27 2 -47 -11 -21 -18 -24 -73
-24 -98 0 -133 48 -73 101 53 48 72 54 97 31 13 -11 22 -22 20 -24z m-23 -12
c3 -4 3 -11 0 -14 -8 -7 -44 4 -44 14 0 12 37 12 44 0z"/>
<path d="M1792 1230 c0 -14 2 -19 5 -12 2 6 2 18 0 25 -3 6 -5 1 -5 -13z"/>
<path d="M1820 1200 c0 -5 5 -10 10 -10 6 0 10 5 10 10 0 6 -4 10 -10 10 -5 0
-10 -4 -10 -10z"/>
<path d="M1850 1169 c0 -5 5 -7 10 -4 6 3 10 8 10 11 0 2 -4 4 -10 4 -5 0 -10
-5 -10 -11z"/>
<path d="M2201 1114 c0 -11 3 -14 6 -6 3 7 2 16 -1 19 -3 4 -6 -2 -5 -13z"/>
<path d="M910 720 c-8 -5 -10 -10 -5 -10 6 0 17 5 25 10 8 5 11 10 5 10 -5 0
-17 -5 -25 -10z"/>
<path d="M556 726 c10 -8 21 -12 24 -10 5 6 -21 24 -34 24 -6 0 -1 -6 10 -14z"/>
<path d="M1380 1339 c12 -16 24 -28 27 -25 7 6 -27 56 -39 56 -5 0 0 -14 12
-31z"/>
<path d="M1221 1328 c-44 -12 -36 -18 14 -9 22 3 36 9 30 12 -5 3 -25 2 -44
-3z"/>
<path d="M1344 1305 c11 -8 24 -15 30 -15 5 0 1 7 -10 15 -10 8 -23 14 -29 14
-5 0 -1 -6 9 -14z"/>
<path d="M1280 1300 c0 -5 8 -10 18 -10 10 0 23 -5 30 -12 9 -9 12 -9 12 0 0
7 -12 17 -26 22 -32 12 -34 12 -34 0z"/>
<path d="M1158 1283 c-9 -2 -19 -11 -22 -19 -4 -10 -2 -14 6 -10 7 3 21 9 31
12 9 4 17 10 17 15 0 9 -4 10 -32 2z"/>
<path d="M660 1265 c-7 -8 -9 -22 -6 -31 4 -9 1 -23 -6 -31 -9 -11 -9 -13 2
-11 7 2 15 -3 18 -11 3 -9 0 -11 -8 -6 -10 6 -12 3 -6 -11 5 -14 -1 -11 -23
10 -33 32 -33 47 1 38 14 -3 19 -2 14 6 -10 17 -46 15 -52 -3 -4 -8 -1 -22 5
-29 10 -12 8 -15 -11 -18 -31 -4 -37 -44 -8 -53 17 -5 19 -10 9 -21 -15 -19 7
-47 32 -39 14 5 16 1 12 -14 -8 -31 26 -40 47 -14 16 20 17 20 28 2 14 -21 42
-15 42 9 0 24 15 5 55 -69 19 -35 35 -58 35 -51 0 17 -47 109 -60 117 -15 9
-12 25 5 25 18 0 20 31 4 47 -9 9 -5 14 15 19 33 8 33 43 -1 60 -17 8 -20 13
-11 22 8 8 8 15 -2 27 -16 19 -29 19 -52 -2 -17 -15 -18 -15 -18 3 0 39 -37
57 -60 29z m44 -21 c12 -31 7 -56 -11 -52 -23 4 -32 68 -10 68 8 0 18 -7 21
-16z m76 -23 c0 -5 -7 -16 -15 -25 -20 -20 -19 -25 5 -19 22 6 53 -14 44 -28
-3 -5 -15 -9 -28 -9 -12 0 -28 -6 -35 -12 -11 -11 -12 -9 -7 9 5 15 1 25 -14
36 -17 12 -18 16 -7 26 8 6 17 7 21 3 4 -4 7 -2 6 3 -1 6 -2 13 -1 18 2 10 31
9 31 -2z m-60 -56 c26 -31 -18 -71 -47 -43 -12 12 -13 20 -4 37 14 25 34 27
51 6z m-79 -27 c12 -22 36 -42 52 -43 4 0 12 -7 17 -15 8 -12 10 -11 10 6 0
28 34 37 54 15 9 -10 16 -21 16 -24 0 -12 -35 -8 -48 5 -10 10 -11 5 -6 -21 6
-26 4 -33 -7 -29 -8 2 -19 15 -25 27 l-12 22 -6 -25 c-8 -31 -36 -35 -36 -5 0
11 4 18 8 15 4 -2 8 4 8 15 0 23 -12 25 -20 4 -7 -18 -50 -21 -43 -2 2 6 11
12 19 11 8 -1 15 5 15 12 0 8 -10 14 -22 14 -24 0 -49 22 -38 33 15 15 53 6
64 -15z"/>
<path d="M680 1219 c0 -5 5 -7 10 -4 6 3 10 8 10 11 0 2 -4 4 -10 4 -5 0 -10
-5 -10 -11z"/>
<path d="M1240 1276 c0 -2 14 -6 30 -8 17 -3 30 -1 30 4 0 4 -13 8 -30 8 -16
0 -30 -2 -30 -4z"/>
<path d="M1105 1210 c-10 -11 -13 -20 -7 -20 7 0 12 4 12 8 0 5 10 14 23 20
15 7 17 11 6 11 -9 1 -24 -8 -34 -19z"/>
<path d="M1016 1165 c-24 -37 -19 -44 9 -11 27 32 29 36 16 36 -5 0 -16 -11
-25 -25z"/>
<path d="M1104 1165 c-4 -8 -11 -12 -17 -8 -6 3 -7 1 -3 -5 4 -6 2 -21 -4 -33
-9 -16 -9 -24 0 -33 10 -8 11 -7 8 4 -3 8 6 32 19 53 13 20 19 37 13 37 -6 0
-13 -7 -16 -15z"/>
<path d="M1005 1100 c-11 -17 -14 -50 -6 -50 5 0 11 8 15 18 3 9 9 23 12 30 7
14 -12 17 -21 2z"/>
<path d="M1100 1076 c-15 -39 -12 -46 6 -13 9 16 13 31 10 34 -3 3 -10 -6 -16
-21z"/>
<path d="M1060 1067 c0 -48 67 -189 101 -214 10 -7 27 -29 39 -48 18 -29 21
-44 16 -83 -11 -72 -15 -82 -34 -76 -13 5 -14 4 -3 -4 7 -5 10 -15 7 -21 -4
-6 -4 -11 -1 -11 14 0 45 88 45 128 0 53 -10 72 -71 140 -46 50 -79 123 -79
173 0 10 -4 21 -10 24 -5 3 -10 0 -10 -8z"/>
<path d="M1116 1055 c-3 -9 -5 -31 -5 -48 1 -27 3 -24 9 13 8 48 6 61 -4 35z"/>
<path d="M990 1029 c0 -5 5 -7 10 -4 6 3 10 8 10 11 0 2 -4 4 -10 4 -5 0 -10
-5 -10 -11z"/>
<path d="M2299 1020 c-1 -5 -1 -17 -1 -25 0 -28 2 -33 15 -31 29 4 37 16 25
41 -11 25 -37 34 -39 15z m31 -26 c0 -8 -4 -14 -10 -14 -5 0 -10 9 -10 21 0
11 5 17 10 14 6 -3 10 -13 10 -21z"/>
<path d="M1130 987 c0 -20 4 -37 10 -37 5 0 7 14 3 33 -8 45 -13 47 -13 4z"/>
<path d="M1300 1005 c7 -9 15 -13 17 -11 7 7 -7 26 -19 26 -6 0 -6 -6 2 -15z"/>
<path d="M988 1005 c-4 -4 -3 -17 2 -28 5 -12 11 -35 15 -51 3 -15 8 -27 10
-24 2 2 -2 27 -8 57 -7 29 -15 50 -19 46z"/>
<path d="M2255 991 c-3 -5 -1 -12 4 -15 5 -3 11 1 15 9 6 16 -9 21 -19 6z"/>
<path d="M1286 968 c10 -14 21 -24 23 -22 3 3 -6 15 -18 27 l-24 22 19 -27z"/>
<path d="M1629 963 c-12 -16 -12 -17 1 -7 8 6 22 14 30 17 13 5 12 6 -1 6 -9
1 -23 -7 -30 -16z"/>
<path d="M1275 937 c10 -15 20 -25 23 -22 3 3 -5 16 -17 28 l-23 22 17 -28z"/>
<path d="M1395 949 c-4 -6 -3 -15 3 -21 6 -6 11 -4 15 6 7 18 -9 31 -18 15z"/>
<path d="M1624 931 c-16 -17 -30 -43 -31 -59 -2 -15 -5 -45 -7 -67 -5 -56 4
-65 20 -19 17 47 16 47 4 39 -17 -11 -11 11 11 39 18 23 19 26 3 26 -15 0 -14
3 6 25 12 13 26 22 30 20 4 -3 13 2 20 10 9 10 9 15 1 15 -6 0 -11 -6 -11 -12
0 -10 -2 -10 -9 0 -6 10 -15 6 -37 -17z"/>
<path d="M1885 940 c-26 -28 -15 -31 12 -3 12 13 19 23 14 23 -4 0 -16 -9 -26
-20z"/>
<path d="M1420 930 c0 -3 7 -15 15 -26 13 -18 14 -18 15 -1 0 17 2 17 26 -2
27 -21 92 -46 100 -38 3 2 -20 17 -50 32 -31 15 -54 31 -52 34 2 3 -9 6 -25 7
-16 1 -29 -2 -29 -6z"/>
<path d="M1886 904 c-10 -14 -16 -28 -13 -30 2 -3 12 7 21 22 10 14 16 28 13
30 -2 3 -12 -7 -21 -22z"/>
<path d="M1054 879 c5 -26 54 -89 69 -89 3 0 0 14 -6 30 -10 25 -13 28 -18 13
-6 -14 -9 -11 -14 14 -4 18 -12 30 -17 27 -6 -4 -8 2 -3 15 4 13 2 21 -6 21
-8 0 -9 -10 -5 -31z"/>
<path d="M880 884 c0 -8 5 -12 10 -9 6 4 8 11 5 16 -9 14 -15 11 -15 -7z"/>
<path d="M1654 880 c0 -11 1 -20 3 -20 1 0 7 9 13 20 8 15 8 20 -3 20 -7 0
-13 -9 -13 -20z"/>
<path d="M1906 885 c-3 -8 -1 -15 3 -15 5 0 11 7 15 15 3 8 1 15 -3 15 -5 0
-11 -7 -15 -15z"/>
<path d="M1411 874 c0 -11 3 -14 6 -6 3 7 2 16 -1 19 -3 4 -6 -2 -5 -13z"/>
<path d="M1430 878 c0 -3 13 -21 30 -39 28 -32 43 -31 17 1 -15 19 -47 44 -47
38z"/>
<path d="M1785 869 c-4 -6 -5 -12 -2 -15 2 -3 7 2 10 11 7 17 1 20 -8 4z"/>
<path d="M1670 836 c0 -8 -6 -16 -12 -19 -7 -2 -10 -7 -7 -11 7 -8 39 21 39
35 0 5 -4 9 -10 9 -5 0 -10 -6 -10 -14z"/>
<path d="M1870 825 c-7 -9 -8 -15 -2 -15 5 0 12 7 16 15 3 8 4 15 2 15 -2 0
-9 -7 -16 -15z"/>
<path d="M2096 828 c3 -5 10 -6 15 -3 13 9 11 12 -6 12 -8 0 -12 -4 -9 -9z"/>
<path d="M1440 819 c0 -16 33 -50 60 -63 8 -4 6 1 -5 11 -11 10 -28 29 -38 43
-11 16 -17 19 -17 9z"/>
<path d="M2187 781 c-9 -16 -17 -33 -17 -38 0 -4 9 7 21 26 11 18 18 35 17 37
-2 2 -12 -10 -21 -25z"/>
<path d="M1652 760 c-6 -17 -8 -38 -4 -48 4 -12 9 -3 13 28 8 55 5 61 -9 20z"/>
<path d="M1751 774 c0 -11 3 -14 6 -6 3 7 2 16 -1 19 -3 4 -6 -2 -5 -13z"/>
<path d="M801 744 c0 -11 3 -14 6 -6 3 7 2 16 -1 19 -3 4 -6 -2 -5 -13z"/>
<path d="M1431 684 c0 -11 7 -29 18 -38 17 -16 19 -16 23 2 4 15 1 18 -12 15
-13 -4 -20 2 -23 19 -4 20 -4 21 -6 2z"/>
<path d="M1676 681 c7 -25 44 -92 44 -79 0 4 -11 28 -26 55 -14 26 -22 37 -18
24z"/>
<path d="M1351 664 c0 -11 3 -14 6 -6 3 7 2 16 -1 19 -3 4 -6 -2 -5 -13z"/>
<path d="M1408 658 c-3 -21 -9 -23 -65 -24 -34 0 -66 -3 -69 -7 -4 -4 22 -7
57 -7 35 0 74 -3 87 -6 16 -5 22 -2 22 11 0 10 -5 15 -13 12 -10 -4 -13 2 -9
19 2 13 2 24 -1 24 -3 0 -7 -10 -9 -22z"/>
<path d="M2123 655 c0 -8 4 -12 9 -9 4 3 8 9 8 15 0 5 -4 9 -8 9 -5 0 -9 -7
-9 -15z"/>
<path d="M1495 649 c-9 -14 -2 -20 14 -10 8 6 9 11 3 15 -6 3 -14 1 -17 -5z"/>
<path d="M1054 642 c5 -8 -6 -12 -36 -12 -24 0 -50 -5 -58 -11 -11 -8 0 -9 40
-4 58 7 80 18 59 30 -8 5 -10 4 -5 -3z"/>
<path d="M2167 643 c-4 -3 -7 -11 -7 -17 0 -6 5 -5 12 2 6 6 9 14 7 17 -3 3
-9 2 -12 -2z"/>
<path d="M1523 621 c-11 -18 -8 -19 45 -26 31 -3 65 -9 75 -12 18 -5 18 -4 0
14 -10 11 -26 17 -35 15 -12 -3 -18 2 -18 14 -1 18 -1 18 -14 2 -16 -22 -33
-23 -38 -3 -2 13 -5 12 -15 -4z"/>
<path d="M2298 633 c7 -3 16 -2 19 1 4 3 -2 6 -13 5 -11 0 -14 -3 -6 -6z"/>
<path d="M2010 611 c0 -6 4 -13 10 -16 6 -3 7 1 4 9 -7 18 -14 21 -14 7z"/>
<path d="M1735 564 c10 -17 26 -41 37 -55 l20 -24 -17 31 c-10 17 -26 41 -37
55 l-20 24 17 -31z"/>
<path d="M2287 563 c-11 -11 -8 -20 9 -27 10 -4 13 -2 8 6 -4 6 3 4 15 -5 13
-8 30 -13 37 -10 8 3 14 0 14 -5 0 -6 8 -13 18 -17 30 -9 59 -95 33 -95 -5 0
-11 -8 -13 -18 -3 -11 -27 -29 -54 -42 -27 -13 -58 -30 -68 -39 -11 -9 -16
-11 -12 -4 5 9 -5 8 -35 -2 -23 -8 -53 -15 -68 -15 -14 0 -46 -6 -71 -14 -49
-15 -392 -18 -406 -3 -4 4 -14 7 -23 7 -30 0 -92 21 -87 29 3 5 -6 6 -19 3
-15 -2 -25 0 -25 7 0 7 -6 11 -12 10 -7 -2 -38 3 -68 9 -30 7 -66 14 -80 17
-14 3 -36 7 -51 10 -38 8 -226 9 -289 1 -79 -11 -340 -12 -340 -3 0 5 -8 7
-18 6 -22 -3 -64 15 -80 34 -17 20 -7 68 19 89 11 10 24 16 28 14 4 -3 12 4
19 15 28 44 -56 9 -95 -41 -35 -43 16 -120 91 -139 58 -14 212 -14 405 1 122
9 170 9 230 -1 42 -7 90 -15 108 -17 17 -2 43 -8 56 -13 14 -6 27 -7 30 -5 3
3 34 -6 69 -20 96 -38 167 -48 327 -48 140 0 239 11 326 33 22 6 47 12 55 14
62 13 153 73 176 117 14 27 14 37 3 70 -11 33 -21 43 -75 68 -65 31 -76 34
-87 23z"/>
<path d="M1521 539 c0 -13 3 -19 5 -13 3 7 13 10 23 7 10 -3 22 1 27 8 5 9 2
10 -11 6 -9 -4 -24 -2 -31 4 -11 9 -14 7 -13 -12z"/>
<path d="M1586 534 c-4 -9 -4 -19 -1 -22 2 -3 7 3 11 12 4 9 4 19 1 22 -2 3
-7 -3 -11 -12z"/>
<path d="M1305 531 c-3 -5 0 -13 6 -17 8 -5 9 -3 4 6 -6 10 -1 12 18 8 15 -3
24 -1 21 3 -7 12 -41 11 -49 0z"/>
<path d="M1380 524 c0 -5 48 -26 73 -30 32 -7 17 4 -28 19 -25 9 -45 14 -45
11z"/>
<path d="M802 508 c-17 -17 -15 -27 11 -49 24 -20 47 -25 47 -9 0 6 -6 10 -14
10 -8 0 -22 7 -31 16 -14 15 -14 17 2 30 10 7 13 14 8 14 -6 0 -16 -5 -23 -12z"/>
<path d="M1200 510 c0 -5 11 -10 24 -10 14 0 37 -5 52 -10 33 -13 46 -3 20 16
-22 16 -96 19 -96 4z"/>
<path d="M1933 513 c9 -2 23 -2 30 0 6 3 -1 5 -18 5 -16 0 -22 -2 -12 -5z"/>
<path d="M1976 492 c-3 -5 1 -9 9 -9 8 0 12 4 9 9 -3 4 -7 8 -9 8 -2 0 -6 -4
-9 -8z"/>
<path d="M694 475 c4 -11 -2 -15 -26 -15 -30 0 -31 0 -13 -20 10 -11 23 -20
28 -20 6 0 2 7 -9 15 -15 11 -16 14 -3 15 8 0 21 -6 28 -12 10 -11 11 -10 6 5
-4 10 -2 17 4 17 6 0 11 -7 11 -17 0 -9 3 -13 7 -10 8 9 -17 57 -30 57 -5 0
-7 -7 -3 -15z"/>
<path d="M1484 481 c3 -4 47 -8 98 -9 51 -1 89 0 83 3 -19 7 -185 13 -181 6z"/>
<path d="M1790 476 c0 -2 7 -7 16 -10 8 -3 12 -2 9 4 -6 10 -25 14 -25 6z"/>
<path d="M746 455 c-9 -26 -7 -32 5 -12 6 10 9 21 6 23 -2 3 -7 -2 -11 -11z"/>
<path d="M1004 462 c3 -5 0 -13 -6 -15 -9 -4 -10 -6 -1 -6 17 -1 25 16 12 25
-7 4 -9 3 -5 -4z"/>
<path d="M1377 460 c13 -11 123 -39 123 -31 0 4 -30 14 -66 23 -36 9 -62 12
-57 8z"/>
<path d="M888 443 c12 -2 32 -2 45 0 12 2 2 4 -23 4 -25 0 -35 -2 -22 -4z"/>
<path d="M1191 414 c0 -11 3 -14 6 -6 3 7 2 16 -1 19 -3 4 -6 -2 -5 -13z"/>
<path d="M1216 415 c-9 -26 -7 -32 5 -12 6 10 9 21 6 23 -2 3 -7 -2 -11 -11z"/>
<path d="M1535 415 c17 -8 41 -14 55 -14 l25 1 -25 7 c-14 4 -38 11 -55 14
l-30 6 30 -14z"/>
<path d="M2185 414 l-50 -14 45 6 c25 3 49 9 55 15 5 5 7 8 5 8 -3 -1 -27 -8
-55 -15z"/>
<path d="M2098 393 c6 -2 18 -2 25 0 6 3 1 5 -13 5 -14 0 -19 -2 -12 -5z"/>
<path d="M1678 383 c6 -2 18 -2 25 0 6 3 1 5 -13 5 -14 0 -19 -2 -12 -5z"/>
<path d="M1728 383 c7 -3 16 -2 19 1 4 3 -2 6 -13 5 -11 0 -14 -3 -6 -6z"/>
<path d="M2018 383 c12 -2 30 -2 40 0 9 3 -1 5 -23 4 -22 0 -30 -2 -17 -4z"/>
<path d="M1828 373 c17 -2 47 -2 65 0 17 2 3 4 -33 4 -36 0 -50 -2 -32 -4z"/>
<path d="M2120 355 c-7 -9 -10 -18 -6 -22 3 -3 6 -1 6 5 0 7 7 12 15 12 8 0
15 5 15 10 0 15 -16 12 -30 -5z"/>
<path d="M2163 345 c-9 -24 1 -27 15 -5 8 13 8 20 2 20 -6 0 -13 -7 -17 -15z"/>
<path d="M1670 345 c0 -5 5 -17 10 -25 5 -8 10 -10 10 -5 0 6 -5 17 -10 25 -5
8 -10 11 -10 5z"/>
<path d="M2086 335 c4 -8 8 -15 10 -15 2 0 4 7 4 15 0 8 -4 15 -10 15 -5 0 -7
-7 -4 -15z"/>
<path d="M1701 324 c0 -11 3 -14 6 -6 3 7 2 16 -1 19 -3 4 -6 -2 -5 -13z"/>
<path d="M1726 324 c-4 -9 -4 -19 -1 -22 2 -3 7 3 11 12 4 9 4 19 1 22 -2 3
-7 -3 -11 -12z"/>
</g>
</svg>